<?xml version="1.0" encoding="UTF-8" standalone="no"?>
<svg
   xmlns:osb="http://www.openswatchbook.org/uri/2009/osb"
   xmlns:dc="http://purl.org/dc/elements/1.1/"
   xmlns:cc="http://creativecommons.org/ns#"
   xmlns:rdf="http://www.w3.org/1999/02/22-rdf-syntax-ns#"
   xmlns:svg="http://www.w3.org/2000/svg"
   xmlns="http://www.w3.org/2000/svg"
   xmlns:xlink="http://www.w3.org/1999/xlink"
   xmlns:sodipodi="http://sodipodi.sourceforge.net/DTD/sodipodi-0.dtd"
   xmlns:inkscape="http://www.inkscape.org/namespaces/inkscape"
   width="24px"
   height="24px"
   viewBox="0 0 24 24"
   fill="#FFFFFF"
   id="svg3380"
   version="1.1"
   inkscape:version="0.91 r13725"
   sodipodi:docname="ic_dom_inv_24dp.svg">
  <metadata
     id="metadata3390">
    <rdf:RDF>
      <cc:Work
         rdf:about="">
        <dc:format>image/svg+xml</dc:format>
        <dc:type
           rdf:resource="http://purl.org/dc/dcmitype/StillImage" />
        <dc:title></dc:title>
      </cc:Work>
    </rdf:RDF>
  </metadata>
  <defs
     id="defs3388">
    <linearGradient
       id="linearGradient5684"
       osb:paint="solid">
      <stop
         style="stop-color:#ffffff;stop-opacity:1;"
         offset="0"
         id="stop5686" />
    </linearGradient>
    <linearGradient
       id="linearGradient4234"
       osb:paint="solid">
      <stop
         style="stop-color:#000000;stop-opacity:1;"
         offset="0"
         id="stop4236" />
    </linearGradient>
    <linearGradient
       inkscape:collect="always"
       xlink:href="#linearGradient5684"
       id="linearGradient5688"
       x1="0.1016949"
       y1="12.152542"
       x2="24.101695"
       y2="12.152542"
       gradientUnits="userSpaceOnUse" />
  </defs>
  <sodipodi:namedview
     pagecolor="#ffffff"
     bordercolor="#666666"
     borderopacity="1"
     objecttolerance="10"
     gridtolerance="10"
     guidetolerance="10"
     inkscape:pageopacity="0"
     inkscape:pageshadow="2"
     inkscape:window-width="1569"
     inkscape:window-height="1078"
     id="namedview3386"
     showgrid="false"
     inkscape:zoom="9.8333333"
     inkscape:cx="-3"
     inkscape:cy="11.960639"
     inkscape:window-x="0"
     inkscape:window-y="0"
     inkscape:window-maximized="0"
     inkscape:current-layer="svg3380" />
  <path
     style="fill:url(#linearGradient5688);stroke-width:0.1;stroke-miterlimit:4;stroke-dasharray:none;fill-opacity:1"
     id="path3338"
     d="m 19.301695,19.744121 0,-1.01221 c 0,-0.101222 -0.1,-0.303664 -0.2,-0.404885 -0.1,-0.101221 -0.3,-0.101221 -0.4,-0.101221 l -13.2000001,0 c -0.2,0 -0.3,0 -0.4,0.101221 -0.1,0.101221 -0.2,0.202443 -0.2,0.404885 l 0,1.01221 c 0,0.101221 0.1,0.303663 0.2,0.404884 0.1,0.101221 0.3,0.101221 0.4,0.101221 l 13.2000001,0 c 0.2,0 0.3,0 0.4,-0.101221 0.2,-0.101221 0.2,-0.202442 0.2,-0.404884 z m 0,-4.048842 0,-1.012211 c 0,-0.101221 -0.1,-0.303662 -0.2,-0.404884 -0.1,-0.101221 -0.3,-0.101221 -0.4,-0.101221 l -13.2000001,0 c -0.2,0 -0.3,0 -0.4,0.101221 -0.1,0.101222 -0.2,0.202442 -0.2,0.404884 l 0,1.012211 c 0,0.101221 0.1,0.303663 0.2,0.404884 0.1,0.101221 0.3,0.101221 0.4,0.101221 l 13.2000001,0 c 0.2,0 0.3,0 0.4,-0.101221 0.1,-0.101221 0.2,-0.202442 0.2,-0.404884 z m 4.8,-5.567157 0,12.65263 c 0,0.404885 -0.2,0.809769 -0.5,1.113432 -0.4,0.303663 -0.8,0.404884 -1.3,0.404884 l -20.4000001,0 c -0.5,0 -0.9,-0.101221 -1.3,-0.404884 -0.4,-0.303663 -0.5,-0.607327 -0.5,-1.113432 l 0,-21.25642 c 0,-0.404884 0.2,-0.809768 0.5,-1.113431 0.3,-0.303663 0.8,-0.404885 1.3,-0.404885 l 10.2000001,0 0,8.60379 c 0,0.404884 0.2,0.809768 0.5,1.113432 0.4,0.303662 0.8,0.404884 1.3,0.404884 l 10.2,0 0,0 z m 0,-2.024422 -9.6,0 0,-8.097684 c 1,0.202443 1.9,0.506106 2.5,1.012211 l 5.9,4.959831 c 0.6,0.506106 1,1.214653 1.2,2.125642 z"
     inkscape:connector-curvature="0" />
</svg>
