<?xml version="1.0" encoding="UTF-8" standalone="no"?>
<svg width="198px" height="240px" viewBox="0 0 198 240" version="1.1" xmlns="http://www.w3.org/2000/svg" xmlns:xlink="http://www.w3.org/1999/xlink" xmlns:sketch="http://www.bohemiancoding.com/sketch/ns">
    <!-- Generator: Sketch 3.3.3 (12081) - http://www.bohemiancoding.com/sketch -->
    <title>transition</title>
    <desc>Created with Sketch.</desc>
    <defs></defs>
    <g id="Page-1" stroke="none" stroke-width="1" fill="none" fill-rule="evenodd" sketch:type="MSPage">
        <g id="transition" sketch:type="MSArtboardGroup">
            <g id="Imported-Layers-Copy-4-+-Imported-Layers-Copy-+-Imported-Layers-Copy-2-Copy" sketch:type="MSLayerGroup">
                <g id="Imported-Layers-Copy-4" transform="translate(0.000000, 107.000000)" sketch:type="MSShapeGroup">
                    <path d="M149.625,2.527 C149.625,2.527 155.805,6.096 156.362,6.418 L156.362,7.304 C156.362,7.481 156.375,7.664 156.4,7.853 C156.41,7.934 156.42,8.015 156.427,8.095 C156.567,9.51 157.401,11.093 158.532,12.094 L164.252,17.156 L164.333,17.066 C164.333,17.066 168.715,14.536 169.568,14.042 C171.025,14.883 195.538,29.035 195.538,29.035 L195.538,83.036 C195.538,83.807 195.152,84.253 194.59,84.253 C194.357,84.253 194.095,84.177 193.818,84.017 L169.851,70.179 L169.837,70.203 L142.515,85.978 L141.665,84.655 C136.934,83.126 131.917,81.915 126.714,81.045 C126.709,81.06 126.707,81.069 126.707,81.069 L121.64,98.03 L113.749,102.586 L113.712,102.523 L113.712,130.113 C113.712,130.885 113.326,131.33 112.764,131.33 C112.532,131.33 112.269,131.254 111.992,131.094 L69.519,106.572 C68.569,106.023 67.799,104.695 67.799,103.605 L67.799,102.57 L67.778,102.617 C67.27,102.393 66.648,102.249 65.962,102.218 C65.875,102.214 65.788,102.212 65.701,102.212 C65.606,102.212 65.511,102.215 65.416,102.219 C65.195,102.229 64.974,102.235 64.754,102.235 C64.331,102.235 63.911,102.216 63.498,102.178 C61.843,102.025 60.298,101.578 59.094,100.882 L12.518,73.992 L12.523,74.004 L2.245,55.254 C1.244,53.427 2.004,51.038 3.943,49.918 L59.954,17.573 C60.626,17.185 61.35,17.001 62.053,17.001 C63.379,17.001 64.625,17.66 65.28,18.854 L65.285,18.851 L65.512,19.264 L65.506,19.268 C65.909,20.003 66.405,20.68 66.983,21.286 L67.26,21.556 C69.174,23.406 71.728,24.357 74.373,24.357 C76.322,24.357 78.321,23.84 80.148,22.785 C80.161,22.785 87.467,18.566 87.467,18.566 C88.139,18.178 88.863,17.994 89.566,17.994 C90.892,17.994 92.138,18.652 92.792,19.847 L96.042,25.775 L96.064,25.757 L102.849,29.674 L102.744,29.492 L149.625,2.527 M149.625,0.892 C149.343,0.892 149.062,0.965 148.81,1.11 L102.641,27.666 L97.231,24.542 L94.226,19.061 C93.313,17.394 91.527,16.359 89.566,16.358 C88.555,16.358 87.546,16.632 86.649,17.15 C83.878,18.75 79.687,21.169 79.374,21.345 C79.359,21.353 79.345,21.361 79.33,21.369 C77.798,22.254 76.084,22.722 74.373,22.722 C72.081,22.722 69.959,21.89 68.397,20.38 L68.145,20.135 C67.706,19.672 67.323,19.156 67.006,18.601 C66.988,18.559 66.968,18.519 66.946,18.479 L66.719,18.065 C66.69,18.012 66.658,17.96 66.624,17.911 C65.686,16.337 63.951,15.366 62.053,15.366 C61.042,15.366 60.033,15.64 59.136,16.158 L3.125,48.502 C0.426,50.061 -0.613,53.442 0.811,56.04 L11.089,74.79 C11.266,75.113 11.537,75.353 11.85,75.494 L58.276,102.298 C59.679,103.108 61.433,103.63 63.348,103.806 C63.812,103.848 64.285,103.87 64.754,103.87 C65,103.87 65.249,103.864 65.494,103.852 C65.563,103.849 65.632,103.847 65.701,103.847 C65.764,103.847 65.828,103.849 65.89,103.852 C65.986,103.856 66.08,103.863 66.173,103.874 C66.282,105.467 67.332,107.197 68.702,107.988 L111.174,132.51 C111.698,132.812 112.232,132.965 112.764,132.965 C114.261,132.965 115.347,131.765 115.347,130.113 L115.347,103.551 L122.458,99.446 C122.819,99.237 123.087,98.898 123.207,98.498 L127.865,82.905 C132.279,83.702 136.557,84.753 140.607,86.033 L141.14,86.862 C141.451,87.346 141.977,87.613 142.516,87.613 C142.794,87.613 143.076,87.542 143.333,87.393 L169.865,72.076 L193,85.433 C193.523,85.735 194.058,85.888 194.59,85.888 C196.087,85.888 197.173,84.689 197.173,83.036 L197.173,29.035 C197.173,28.451 196.861,27.911 196.355,27.619 C196.355,27.619 171.843,13.467 170.385,12.626 C170.132,12.48 169.85,12.407 169.568,12.407 C169.285,12.407 169.002,12.481 168.749,12.627 C168.143,12.978 165.756,14.357 164.424,15.125 L159.615,10.87 C158.796,10.145 158.154,8.937 158.054,7.934 C158.045,7.837 158.034,7.739 158.021,7.64 C158.005,7.523 157.998,7.41 157.998,7.304 L157.998,6.418 C157.998,5.834 157.686,5.295 157.181,5.002 C156.624,4.68 150.442,1.111 150.442,1.111 C150.189,0.965 149.907,0.892 149.625,0.892" id="Fill-1" fill="#455A64"></path>
                    <path d="M96.027,25.636 L142.603,52.527 C143.807,53.222 144.582,54.114 144.845,55.068 L144.835,55.075 L63.461,102.057 L63.46,102.057 C61.806,101.905 60.261,101.457 59.057,100.762 L12.481,73.871 L96.027,25.636" id="Fill-2" fill="#FAFAFA"></path>
                    <path d="M63.461,102.174 C63.453,102.174 63.446,102.174 63.439,102.172 C61.746,102.016 60.211,101.563 58.998,100.863 L12.422,73.973 C12.386,73.952 12.364,73.914 12.364,73.871 C12.364,73.83 12.386,73.791 12.422,73.77 L95.968,25.535 C96.004,25.514 96.049,25.514 96.085,25.535 L142.661,52.426 C143.888,53.134 144.682,54.038 144.957,55.037 C144.97,55.083 144.953,55.133 144.915,55.161 C144.911,55.165 144.898,55.174 144.894,55.177 L63.519,102.158 C63.501,102.169 63.481,102.174 63.461,102.174 L63.461,102.174 Z M12.714,73.871 L59.115,100.661 C60.293,101.341 61.786,101.782 63.435,101.937 L144.707,55.015 C144.428,54.108 143.682,53.285 142.544,52.628 L96.027,25.771 L12.714,73.871 L12.714,73.871 Z" id="Fill-3" fill="#607D8B"></path>
                    <path d="M148.327,58.471 C148.145,58.48 147.962,58.48 147.781,58.472 C145.887,58.389 144.479,57.434 144.636,56.34 C144.689,55.967 144.664,55.597 144.564,55.235 L63.461,102.057 C64.089,102.115 64.733,102.13 65.379,102.099 C65.561,102.09 65.743,102.09 65.925,102.098 C67.819,102.181 69.227,103.136 69.07,104.23 L148.327,58.471" id="Fill-4" fill="#FFFFFF"></path>
                    <path d="M69.07,104.347 C69.048,104.347 69.025,104.34 69.005,104.327 C68.968,104.301 68.948,104.257 68.955,104.213 C69,103.896 68.898,103.576 68.658,103.288 C68.153,102.678 67.103,102.266 65.92,102.214 C65.742,102.206 65.563,102.207 65.385,102.215 C64.742,102.246 64.087,102.232 63.45,102.174 C63.399,102.169 63.358,102.132 63.347,102.082 C63.336,102.033 63.358,101.981 63.402,101.956 L144.506,55.134 C144.537,55.116 144.575,55.113 144.609,55.127 C144.642,55.141 144.668,55.17 144.677,55.204 C144.781,55.585 144.806,55.972 144.751,56.357 C144.706,56.673 144.808,56.994 145.047,57.282 C145.553,57.892 146.602,58.303 147.786,58.355 C147.964,58.363 148.143,58.363 148.321,58.354 C148.377,58.352 148.424,58.387 148.439,58.438 C148.454,58.49 148.432,58.545 148.385,58.572 L69.129,104.331 C69.111,104.342 69.09,104.347 69.07,104.347 L69.07,104.347 Z M65.665,101.975 C65.754,101.975 65.842,101.977 65.93,101.981 C67.196,102.037 68.283,102.469 68.838,103.139 C69.065,103.413 69.188,103.714 69.198,104.021 L147.883,58.592 C147.847,58.592 147.811,58.591 147.776,58.589 C146.509,58.533 145.422,58.1 144.867,57.431 C144.585,57.091 144.465,56.707 144.52,56.324 C144.563,56.021 144.552,55.716 144.488,55.414 L63.846,101.97 C64.353,102.002 64.867,102.006 65.374,101.982 C65.471,101.977 65.568,101.975 65.665,101.975 L65.665,101.975 Z" id="Fill-5" fill="#607D8B"></path>
                    <path d="M2.208,55.134 C1.207,53.307 1.967,50.917 3.906,49.797 L59.917,17.453 C61.856,16.333 64.241,16.907 65.243,18.734 L65.475,19.144 C65.872,19.882 66.368,20.56 66.945,21.165 L67.223,21.435 C70.548,24.649 75.806,25.151 80.111,22.665 L87.43,18.445 C89.37,17.326 91.754,17.899 92.755,19.727 L96.005,25.655 L12.486,73.884 L2.208,55.134 Z" id="Fill-6" fill="#FAFAFA"></path>
                    <path d="M12.486,74.001 C12.476,74.001 12.465,73.999 12.455,73.996 C12.424,73.988 12.399,73.967 12.384,73.94 L2.106,55.19 C1.075,53.31 1.857,50.845 3.848,49.696 L59.858,17.352 C60.525,16.967 61.271,16.764 62.016,16.764 C63.431,16.764 64.666,17.466 65.327,18.646 C65.337,18.654 65.345,18.663 65.351,18.674 L65.578,19.088 C65.584,19.1 65.589,19.112 65.591,19.126 C65.985,19.838 66.469,20.497 67.03,21.085 L67.305,21.351 C69.151,23.137 71.649,24.12 74.336,24.12 C76.313,24.12 78.29,23.582 80.053,22.563 C80.064,22.557 80.076,22.553 80.088,22.55 L87.372,18.344 C88.038,17.959 88.784,17.756 89.529,17.756 C90.956,17.756 92.201,18.472 92.858,19.67 L96.107,25.599 C96.138,25.654 96.118,25.724 96.063,25.756 L12.545,73.985 C12.526,73.996 12.506,74.001 12.486,74.001 L12.486,74.001 Z M62.016,16.997 C61.312,16.997 60.606,17.19 59.975,17.554 L3.965,49.899 C2.083,50.985 1.341,53.308 2.31,55.078 L12.531,73.723 L95.848,25.611 L92.653,19.782 C92.038,18.66 90.87,17.99 89.529,17.99 C88.825,17.99 88.119,18.182 87.489,18.547 L80.172,22.772 C80.161,22.778 80.149,22.782 80.137,22.785 C78.346,23.811 76.341,24.354 74.336,24.354 C71.588,24.354 69.033,23.347 67.142,21.519 L66.864,21.249 C66.277,20.634 65.774,19.947 65.367,19.203 C65.36,19.192 65.356,19.179 65.354,19.166 L65.163,18.819 C65.154,18.811 65.146,18.801 65.14,18.79 C64.525,17.667 63.357,16.997 62.016,16.997 L62.016,16.997 Z" id="Fill-7" fill="#607D8B"></path>
                    <path d="M42.434,48.808 L42.434,48.808 C39.924,48.807 37.737,47.55 36.582,45.443 C34.771,42.139 36.144,37.809 39.641,35.789 L51.932,28.691 C53.103,28.015 54.413,27.658 55.721,27.658 C58.231,27.658 60.418,28.916 61.573,31.023 C63.384,34.327 62.012,38.657 58.514,40.677 L46.223,47.775 C45.053,48.45 43.742,48.808 42.434,48.808 L42.434,48.808 Z M55.721,28.125 C54.495,28.125 53.265,28.461 52.166,29.096 L39.875,36.194 C36.596,38.087 35.302,42.136 36.992,45.218 C38.063,47.173 40.098,48.34 42.434,48.34 C43.661,48.34 44.89,48.005 45.99,47.37 L58.281,40.272 C61.56,38.379 62.853,34.33 61.164,31.248 C60.092,29.293 58.058,28.125 55.721,28.125 L55.721,28.125 Z" id="Fill-8" fill="#607D8B"></path>
                    <path d="M149.588,2.407 C149.588,2.407 155.768,5.975 156.325,6.297 L156.325,7.184 C156.325,7.36 156.338,7.544 156.362,7.733 C156.373,7.814 156.382,7.894 156.39,7.975 C156.53,9.39 157.363,10.973 158.495,11.974 L165.891,18.519 C166.068,18.675 166.249,18.814 166.432,18.934 C168.011,19.974 169.382,19.4 169.494,17.652 C169.543,16.868 169.551,16.057 169.517,15.223 L169.514,15.063 L169.514,13.912 C170.78,14.642 195.501,28.915 195.501,28.915 L195.501,82.915 C195.501,84.005 194.731,84.445 193.781,83.897 L151.308,59.374 C150.358,58.826 149.588,57.497 149.588,56.408 L149.588,22.375" id="Fill-9" fill="#FAFAFA"></path>
                    <path d="M194.553,84.25 C194.296,84.25 194.013,84.165 193.722,83.997 L151.25,59.476 C150.269,58.909 149.471,57.533 149.471,56.408 L149.471,22.375 L149.705,22.375 L149.705,56.408 C149.705,57.459 150.45,58.744 151.366,59.274 L193.839,83.795 C194.263,84.04 194.655,84.083 194.942,83.917 C195.227,83.753 195.384,83.397 195.384,82.915 L195.384,28.982 C194.102,28.242 172.104,15.542 169.631,14.114 L169.634,15.22 C169.668,16.052 169.66,16.874 169.61,17.659 C169.556,18.503 169.214,19.123 168.647,19.405 C168.028,19.714 167.197,19.578 166.367,19.032 C166.181,18.909 165.995,18.766 165.814,18.606 L158.417,12.062 C157.259,11.036 156.418,9.437 156.274,7.986 C156.266,7.907 156.257,7.827 156.247,7.748 C156.221,7.555 156.209,7.365 156.209,7.184 L156.209,6.364 C155.375,5.883 149.529,2.508 149.529,2.508 L149.646,2.306 C149.646,2.306 155.827,5.874 156.384,6.196 L156.442,6.23 L156.442,7.184 C156.442,7.355 156.454,7.535 156.478,7.717 C156.489,7.8 156.499,7.882 156.507,7.963 C156.645,9.358 157.455,10.898 158.572,11.886 L165.969,18.431 C166.142,18.584 166.319,18.72 166.496,18.837 C167.254,19.336 168,19.467 168.543,19.196 C169.033,18.953 169.329,18.401 169.377,17.645 C169.427,16.867 169.434,16.054 169.401,15.228 L169.397,15.065 L169.397,13.71 L169.572,13.81 C170.839,14.541 195.559,28.814 195.559,28.814 L195.618,28.847 L195.618,82.915 C195.618,83.484 195.42,83.911 195.059,84.119 C194.908,84.206 194.737,84.25 194.553,84.25" id="Fill-10" fill="#607D8B"></path>
                    <path d="M145.685,56.161 L169.8,70.083 L143.822,85.081 L142.36,84.774 C135.826,82.604 128.732,81.046 121.341,80.158 C116.976,79.634 112.678,81.254 111.743,83.778 C111.506,84.414 111.503,85.071 111.732,85.706 C113.27,89.973 115.968,94.069 119.727,97.841 L120.259,98.686 C120.26,98.685 94.282,113.683 94.282,113.683 L70.167,99.761 L145.685,56.161" id="Fill-11" fill="#FFFFFF"></path>
                    <path d="M94.282,113.818 L94.223,113.785 L69.933,99.761 L70.108,99.66 L145.685,56.026 L145.743,56.059 L170.033,70.083 L143.842,85.205 L143.797,85.195 C143.772,85.19 142.336,84.888 142.336,84.888 C135.787,82.714 128.723,81.163 121.327,80.274 C120.788,80.209 120.236,80.177 119.689,80.177 C115.931,80.177 112.635,81.708 111.852,83.819 C111.624,84.432 111.621,85.053 111.842,85.667 C113.377,89.925 116.058,93.993 119.81,97.758 L119.826,97.779 L120.352,98.614 C120.354,98.617 120.356,98.62 120.358,98.624 L120.422,98.726 L120.317,98.787 C120.264,98.818 94.599,113.635 94.34,113.785 L94.282,113.818 L94.282,113.818 Z M70.401,99.761 L94.282,113.549 L119.084,99.229 C119.63,98.914 119.93,98.74 120.101,98.654 L119.635,97.914 C115.864,94.127 113.168,90.033 111.622,85.746 C111.382,85.079 111.386,84.404 111.633,83.738 C112.448,81.539 115.836,79.943 119.689,79.943 C120.246,79.943 120.806,79.976 121.355,80.042 C128.767,80.933 135.846,82.487 142.396,84.663 C143.232,84.838 143.611,84.917 143.786,84.967 L169.566,70.083 L145.685,56.295 L70.401,99.761 L70.401,99.761 Z" id="Fill-12" fill="#607D8B"></path>
                    <path d="M167.23,18.979 L167.23,69.85 L139.909,85.623 L133.448,71.456 C132.538,69.46 130.02,69.718 127.824,72.03 C126.769,73.14 125.931,74.585 125.494,76.048 L119.034,97.676 L91.712,113.45 L91.712,62.579 L167.23,18.979" id="Fill-13" fill="#FFFFFF"></path>
                    <path d="M91.712,113.567 C91.692,113.567 91.672,113.561 91.653,113.551 C91.618,113.53 91.595,113.492 91.595,113.45 L91.595,62.579 C91.595,62.537 91.618,62.499 91.653,62.478 L167.172,18.878 C167.208,18.857 167.252,18.857 167.288,18.878 C167.324,18.899 167.347,18.937 167.347,18.979 L167.347,69.85 C167.347,69.891 167.324,69.93 167.288,69.95 L139.967,85.725 C139.939,85.741 139.905,85.745 139.873,85.735 C139.842,85.725 139.816,85.702 139.802,85.672 L133.342,71.504 C132.967,70.682 132.28,70.229 131.408,70.229 C130.319,70.229 129.044,70.915 127.908,72.11 C126.874,73.2 126.034,74.647 125.606,76.082 L119.146,97.709 C119.137,97.738 119.118,97.762 119.092,97.777 L91.77,113.551 C91.752,113.561 91.732,113.567 91.712,113.567 L91.712,113.567 Z M91.829,62.647 L91.829,113.248 L118.935,97.598 L125.382,76.015 C125.827,74.525 126.664,73.081 127.739,71.95 C128.919,70.708 130.256,69.996 131.408,69.996 C132.377,69.996 133.139,70.497 133.554,71.407 L139.961,85.458 L167.113,69.782 L167.113,19.181 L91.829,62.647 L91.829,62.647 Z" id="Fill-14" fill="#607D8B"></path>
                    <path d="M168.543,19.213 L168.543,70.083 L141.221,85.857 L134.761,71.689 C133.851,69.694 131.333,69.951 129.137,72.263 C128.082,73.374 127.244,74.819 126.807,76.282 L120.346,97.909 L93.025,113.683 L93.025,62.813 L168.543,19.213" id="Fill-15" fill="#FFFFFF"></path>
                    <path d="M93.025,113.8 C93.005,113.8 92.984,113.795 92.966,113.785 C92.931,113.764 92.908,113.725 92.908,113.684 L92.908,62.813 C92.908,62.771 92.931,62.733 92.966,62.712 L168.484,19.112 C168.52,19.09 168.565,19.09 168.601,19.112 C168.637,19.132 168.66,19.171 168.66,19.212 L168.66,70.083 C168.66,70.125 168.637,70.164 168.601,70.184 L141.28,85.958 C141.251,85.975 141.217,85.979 141.186,85.968 C141.154,85.958 141.129,85.936 141.115,85.906 L134.655,71.738 C134.28,70.915 133.593,70.463 132.72,70.463 C131.632,70.463 130.357,71.148 129.221,72.344 C128.186,73.433 127.347,74.881 126.919,76.315 L120.458,97.943 C120.45,97.972 120.431,97.996 120.405,98.01 L93.083,113.785 C93.065,113.795 93.045,113.8 93.025,113.8 L93.025,113.8 Z M93.142,62.881 L93.142,113.481 L120.248,97.832 L126.695,76.248 C127.14,74.758 127.977,73.315 129.052,72.183 C130.231,70.942 131.568,70.229 132.72,70.229 C133.689,70.229 134.452,70.731 134.867,71.641 L141.274,85.692 L168.426,70.016 L168.426,19.415 L93.142,62.881 L93.142,62.881 Z" id="Fill-16" fill="#607D8B"></path>
                    <path d="M169.8,70.083 L142.478,85.857 L136.018,71.689 C135.108,69.694 132.59,69.951 130.393,72.263 C129.339,73.374 128.5,74.819 128.064,76.282 L121.603,97.909 L94.282,113.683 L94.282,62.813 L169.8,19.213 L169.8,70.083 Z" id="Fill-17" fill="#FAFAFA"></path>
                    <path d="M94.282,113.917 C94.241,113.917 94.201,113.907 94.165,113.886 C94.093,113.845 94.048,113.767 94.048,113.684 L94.048,62.813 C94.048,62.73 94.093,62.652 94.165,62.611 L169.683,19.01 C169.755,18.969 169.844,18.969 169.917,19.01 C169.989,19.052 170.033,19.129 170.033,19.212 L170.033,70.083 C170.033,70.166 169.989,70.244 169.917,70.285 L142.595,86.06 C142.538,86.092 142.469,86.1 142.407,86.08 C142.344,86.06 142.293,86.014 142.266,85.954 L135.805,71.786 C135.445,70.997 134.813,70.58 133.977,70.58 C132.921,70.58 131.676,71.252 130.562,72.424 C129.54,73.501 128.711,74.931 128.287,76.348 L121.827,97.976 C121.81,98.034 121.771,98.082 121.72,98.112 L94.398,113.886 C94.362,113.907 94.322,113.917 94.282,113.917 L94.282,113.917 Z M94.515,62.948 L94.515,113.279 L121.406,97.754 L127.84,76.215 C128.29,74.708 129.137,73.247 130.224,72.103 C131.425,70.838 132.793,70.112 133.977,70.112 C134.995,70.112 135.795,70.638 136.23,71.592 L142.584,85.526 L169.566,69.948 L169.566,19.617 L94.515,62.948 L94.515,62.948 Z" id="Fill-18" fill="#607D8B"></path>
                    <path d="M109.894,92.943 L109.894,92.943 C108.12,92.943 106.653,92.218 105.65,90.823 C105.583,90.731 105.593,90.61 105.673,90.529 C105.753,90.448 105.88,90.44 105.974,90.506 C106.754,91.053 107.679,91.333 108.724,91.333 C110.047,91.333 111.478,90.894 112.98,90.027 C118.291,86.96 122.611,79.509 122.611,73.416 C122.611,71.489 122.169,69.856 121.333,68.692 C121.266,68.6 121.276,68.473 121.356,68.392 C121.436,68.311 121.563,68.299 121.656,68.365 C123.327,69.537 124.247,71.746 124.247,74.584 C124.247,80.826 119.821,88.447 114.382,91.587 C112.808,92.495 111.298,92.943 109.894,92.943 L109.894,92.943 Z M106.925,91.401 C107.738,92.052 108.745,92.278 109.893,92.278 L109.894,92.278 C111.215,92.278 112.647,91.951 114.148,91.084 C119.459,88.017 123.78,80.621 123.78,74.528 C123.78,72.549 123.317,70.929 122.454,69.767 C122.865,70.802 123.079,72.042 123.079,73.402 C123.079,79.645 118.653,87.285 113.214,90.425 C111.64,91.334 110.13,91.742 108.724,91.742 C108.083,91.742 107.481,91.593 106.925,91.401 L106.925,91.401 Z" id="Fill-19" fill="#607D8B"></path>
                    <path d="M113.097,90.23 C118.481,87.122 122.845,79.594 122.845,73.416 C122.845,71.365 122.362,69.724 121.522,68.556 C119.738,67.304 117.148,67.362 114.265,69.026 C108.881,72.134 104.517,79.662 104.517,85.84 C104.517,87.891 105,89.532 105.84,90.7 C107.624,91.952 110.214,91.894 113.097,90.23" id="Fill-20" fill="#FAFAFA"></path>
                    <path d="M108.724,91.614 L108.724,91.614 C107.582,91.614 106.566,91.401 105.705,90.797 C105.684,90.783 105.665,90.811 105.65,90.79 C104.756,89.546 104.283,87.842 104.283,85.817 C104.283,79.575 108.709,71.953 114.148,68.812 C115.722,67.904 117.232,67.449 118.638,67.449 C119.78,67.449 120.796,67.758 121.656,68.362 C121.678,68.377 121.697,68.397 121.712,68.418 C122.606,69.662 123.079,71.39 123.079,73.415 C123.079,79.658 118.653,87.198 113.214,90.338 C111.64,91.247 110.13,91.614 108.724,91.614 L108.724,91.614 Z M106.006,90.505 C106.78,91.037 107.694,91.281 108.724,91.281 C110.047,91.281 111.478,90.868 112.98,90.001 C118.291,86.935 122.611,79.496 122.611,73.403 C122.611,71.494 122.177,69.88 121.356,68.718 C120.582,68.185 119.668,67.919 118.638,67.919 C117.315,67.919 115.883,68.36 114.382,69.227 C109.071,72.293 104.751,79.733 104.751,85.826 C104.751,87.735 105.185,89.343 106.006,90.505 L106.006,90.505 Z" id="Fill-21" fill="#607D8B"></path>
                    <path d="M149.318,7.262 L139.334,16.14 L155.227,27.171 L160.816,21.059 L149.318,7.262" id="Fill-22" fill="#FAFAFA"></path>
                    <path d="M169.676,13.84 L159.928,19.467 C156.286,21.57 150.4,21.58 146.781,19.491 C143.161,17.402 143.18,14.003 146.822,11.9 L156.317,6.292 L149.588,2.407 L67.752,49.478 L113.675,75.992 L116.756,74.213 C117.387,73.848 117.625,73.315 117.374,72.823 C115.017,68.191 114.781,63.277 116.691,58.561 C122.329,44.641 141.2,33.746 165.309,30.491 C173.478,29.388 181.989,29.524 190.013,30.885 C190.865,31.03 191.789,30.893 192.42,30.528 L195.501,28.75 L169.676,13.84" id="Fill-23" fill="#FAFAFA"></path>
                    <path d="M113.675,76.459 C113.594,76.459 113.514,76.438 113.442,76.397 L67.518,49.882 C67.374,49.799 67.284,49.645 67.285,49.478 C67.285,49.311 67.374,49.157 67.519,49.073 L149.355,2.002 C149.499,1.919 149.677,1.919 149.821,2.002 L156.55,5.887 C156.774,6.017 156.85,6.302 156.722,6.526 C156.592,6.749 156.307,6.826 156.083,6.696 L149.587,2.946 L68.687,49.479 L113.675,75.452 L116.523,73.808 C116.715,73.697 117.143,73.399 116.958,73.035 C114.542,68.287 114.3,63.221 116.258,58.385 C119.064,51.458 125.143,45.143 133.84,40.122 C142.497,35.124 153.358,31.633 165.247,30.028 C173.445,28.921 182.037,29.058 190.091,30.425 C190.83,30.55 191.652,30.432 192.186,30.124 L194.567,28.75 L169.442,14.244 C169.219,14.115 169.142,13.829 169.271,13.606 C169.4,13.382 169.685,13.306 169.909,13.435 L195.734,28.345 C195.879,28.428 195.968,28.583 195.968,28.75 C195.968,28.916 195.879,29.071 195.734,29.154 L192.653,30.933 C191.932,31.35 190.89,31.508 189.935,31.346 C181.972,29.995 173.478,29.86 165.372,30.954 C153.602,32.543 142.86,35.993 134.307,40.931 C125.793,45.847 119.851,52.004 117.124,58.736 C115.27,63.314 115.501,68.112 117.79,72.611 C118.16,73.336 117.845,74.124 116.99,74.617 L113.909,76.397 C113.836,76.438 113.756,76.459 113.675,76.459" id="Fill-24" fill="#455A64"></path>
                    <path d="M153.316,21.279 C150.903,21.279 148.495,20.751 146.664,19.693 C144.846,18.644 143.844,17.232 143.844,15.718 C143.844,14.191 144.86,12.763 146.705,11.698 L156.198,6.091 C156.309,6.025 156.452,6.062 156.518,6.173 C156.583,6.284 156.547,6.427 156.436,6.493 L146.94,12.102 C145.244,13.081 144.312,14.365 144.312,15.718 C144.312,17.058 145.23,18.326 146.897,19.289 C150.446,21.338 156.24,21.327 159.811,19.265 L169.559,13.637 C169.67,13.573 169.813,13.611 169.878,13.723 C169.943,13.834 169.904,13.977 169.793,14.042 L160.045,19.67 C158.187,20.742 155.749,21.279 153.316,21.279" id="Fill-25" fill="#607D8B"></path>
                    <path d="M113.675,75.992 L67.762,49.484" id="Fill-26" fill="#455A64"></path>
                    <path d="M113.675,76.342 C113.615,76.342 113.555,76.327 113.5,76.295 L67.587,49.787 C67.419,49.69 67.362,49.476 67.459,49.309 C67.556,49.141 67.77,49.083 67.937,49.18 L113.85,75.688 C114.018,75.785 114.075,76 113.978,76.167 C113.914,76.279 113.796,76.342 113.675,76.342" id="Fill-27" fill="#455A64"></path>
                    <path d="M67.762,49.484 L67.762,103.485 C67.762,104.575 68.532,105.903 69.482,106.452 L111.955,130.973 C112.905,131.522 113.675,131.083 113.675,129.993 L113.675,75.992" id="Fill-28" fill="#FAFAFA"></path>
                    <path d="M112.727,131.561 C112.43,131.561 112.107,131.466 111.78,131.276 L69.307,106.755 C68.244,106.142 67.412,104.705 67.412,103.485 L67.412,49.484 C67.412,49.29 67.569,49.134 67.762,49.134 C67.956,49.134 68.113,49.29 68.113,49.484 L68.113,103.485 C68.113,104.445 68.82,105.665 69.657,106.148 L112.13,130.67 C112.474,130.868 112.791,130.913 113,130.792 C113.206,130.673 113.325,130.381 113.325,129.993 L113.325,75.992 C113.325,75.798 113.482,75.641 113.675,75.641 C113.869,75.641 114.025,75.798 114.025,75.992 L114.025,129.993 C114.025,130.648 113.786,131.147 113.35,131.399 C113.162,131.507 112.952,131.561 112.727,131.561" id="Fill-29" fill="#455A64"></path>
                    <path d="M112.86,40.512 C112.86,40.512 112.86,40.512 112.859,40.512 C110.541,40.512 108.36,39.99 106.717,39.041 C105.012,38.057 104.074,36.726 104.074,35.292 C104.074,33.847 105.026,32.501 106.754,31.504 L118.795,24.551 C120.463,23.589 122.669,23.058 125.007,23.058 C127.325,23.058 129.506,23.581 131.15,24.53 C132.854,25.514 133.793,26.845 133.793,28.278 C133.793,29.724 132.841,31.069 131.113,32.067 L119.071,39.019 C117.403,39.982 115.197,40.512 112.86,40.512 L112.86,40.512 Z M125.007,23.759 C122.79,23.759 120.709,24.256 119.146,25.158 L107.104,32.11 C105.602,32.978 104.774,34.108 104.774,35.292 C104.774,36.465 105.589,37.581 107.067,38.434 C108.605,39.323 110.663,39.812 112.859,39.812 L112.86,39.812 C115.076,39.812 117.158,39.315 118.721,38.413 L130.762,31.46 C132.264,30.593 133.092,29.463 133.092,28.278 C133.092,27.106 132.278,25.99 130.8,25.136 C129.261,24.248 127.204,23.759 125.007,23.759 L125.007,23.759 Z" id="Fill-30" fill="#607D8B"></path>
                    <path d="M165.63,16.219 L159.896,19.53 C156.729,21.358 151.61,21.367 148.463,19.55 C145.316,17.733 145.332,14.778 148.499,12.949 L154.233,9.639 L165.63,16.219" id="Fill-31" fill="#FAFAFA"></path>
                    <path d="M154.233,10.448 L164.228,16.219 L159.546,18.923 C158.112,19.75 156.194,20.206 154.147,20.206 C152.118,20.206 150.224,19.757 148.814,18.943 C147.524,18.199 146.814,17.249 146.814,16.269 C146.814,15.278 147.537,14.314 148.85,13.556 L154.233,10.448 M154.233,9.639 L148.499,12.949 C145.332,14.778 145.316,17.733 148.463,19.55 C150.031,20.455 152.086,20.907 154.147,20.907 C156.224,20.907 158.306,20.447 159.896,19.53 L165.63,16.219 L154.233,9.639" id="Fill-32" fill="#607D8B"></path>
                    <path d="M145.445,72.667 L145.445,72.667 C143.672,72.667 142.204,71.817 141.202,70.422 C141.135,70.33 141.145,70.147 141.225,70.066 C141.305,69.985 141.432,69.946 141.525,70.011 C142.306,70.559 143.231,70.823 144.276,70.822 C145.598,70.822 147.03,70.376 148.532,69.509 C153.842,66.443 158.163,58.987 158.163,52.894 C158.163,50.967 157.721,49.332 156.884,48.168 C156.818,48.076 156.828,47.948 156.908,47.867 C156.988,47.786 157.114,47.774 157.208,47.84 C158.878,49.012 159.798,51.22 159.798,54.059 C159.798,60.301 155.373,68.046 149.933,71.186 C148.36,72.094 146.85,72.667 145.445,72.667 L145.445,72.667 Z M142.476,71 C143.29,71.651 144.296,72.002 145.445,72.002 C146.767,72.002 148.198,71.55 149.7,70.682 C155.01,67.617 159.331,60.159 159.331,54.065 C159.331,52.085 158.868,50.435 158.006,49.272 C158.417,50.307 158.63,51.532 158.63,52.892 C158.63,59.134 154.205,66.767 148.765,69.907 C147.192,70.816 145.681,71.283 144.276,71.283 C143.634,71.283 143.033,71.192 142.476,71 L142.476,71 Z" id="Fill-33" fill="#607D8B"></path>
                    <path d="M148.648,69.704 C154.032,66.596 158.396,59.068 158.396,52.891 C158.396,50.839 157.913,49.198 157.074,48.03 C155.289,46.778 152.699,46.836 149.816,48.501 C144.433,51.609 140.068,59.137 140.068,65.314 C140.068,67.365 140.552,69.006 141.391,70.174 C143.176,71.427 145.765,71.369 148.648,69.704" id="Fill-34" fill="#FAFAFA"></path>
                    <path d="M144.276,71.276 L144.276,71.276 C143.133,71.276 142.118,70.969 141.257,70.365 C141.236,70.351 141.217,70.332 141.202,70.311 C140.307,69.067 139.835,67.339 139.835,65.314 C139.835,59.073 144.26,51.439 149.7,48.298 C151.273,47.39 152.784,46.929 154.189,46.929 C155.332,46.929 156.347,47.236 157.208,47.839 C157.229,47.854 157.248,47.873 157.263,47.894 C158.157,49.138 158.63,50.865 158.63,52.891 C158.63,59.132 154.205,66.766 148.765,69.907 C147.192,70.815 145.681,71.276 144.276,71.276 L144.276,71.276 Z M141.558,70.104 C142.331,70.637 143.245,71.005 144.276,71.005 C145.598,71.005 147.03,70.467 148.532,69.6 C153.842,66.534 158.163,59.033 158.163,52.939 C158.163,51.031 157.729,49.385 156.907,48.223 C156.133,47.691 155.219,47.409 154.189,47.409 C152.867,47.409 151.435,47.842 149.933,48.709 C144.623,51.775 140.302,59.273 140.302,65.366 C140.302,67.276 140.736,68.942 141.558,70.104 L141.558,70.104 Z" id="Fill-35" fill="#607D8B"></path>
                    <path d="M150.72,65.361 L150.357,65.066 C151.147,64.092 151.869,63.04 152.505,61.938 C153.313,60.539 153.978,59.067 154.482,57.563 L154.925,57.712 C154.412,59.245 153.733,60.745 152.91,62.172 C152.262,63.295 151.525,64.368 150.72,65.361" id="Fill-36" fill="#607D8B"></path>
                    <path d="M115.917,84.514 L115.554,84.22 C116.344,83.245 117.066,82.194 117.702,81.092 C118.51,79.692 119.175,78.22 119.678,76.717 L120.121,76.865 C119.608,78.398 118.93,79.899 118.106,81.326 C117.458,82.448 116.722,83.521 115.917,84.514" id="Fill-37" fill="#607D8B"></path>
                    <path d="M114,130.476 L114,130.008 L114,76.052 L114,75.584 L114,76.052 L114,130.008 L114,130.476" id="Fill-38" fill="#607D8B"></path>
                </g>
                <g id="Imported-Layers-Copy" transform="translate(62.000000, 0.000000)" sketch:type="MSShapeGroup">
                    <path d="M19.822,37.474 C19.839,37.339 19.747,37.194 19.555,37.082 C19.228,36.894 18.729,36.872 18.446,37.037 L12.434,40.508 C12.303,40.584 12.24,40.686 12.243,40.793 C12.245,40.925 12.245,41.254 12.245,41.371 L12.245,41.414 L12.238,41.542 C8.148,43.887 5.647,45.321 5.647,45.321 C5.646,45.321 3.57,46.367 2.86,50.513 C2.86,50.513 1.948,57.474 1.962,70.258 C1.977,82.828 2.568,87.328 3.129,91.609 C3.349,93.293 6.13,93.734 6.13,93.734 C6.461,93.774 6.828,93.707 7.21,93.486 L82.483,49.935 C84.291,48.866 85.15,46.216 85.539,43.651 C86.752,35.661 87.214,10.673 85.264,3.773 C85.068,3.08 84.754,2.69 84.396,2.491 L82.31,1.701 C81.583,1.729 80.894,2.168 80.776,2.236 C80.636,2.317 41.807,24.585 20.032,37.072 L19.822,37.474" id="Fill-1" fill="#FFFFFF"></path>
                    <path d="M82.311,1.701 L84.396,2.491 C84.754,2.69 85.068,3.08 85.264,3.773 C87.213,10.673 86.751,35.66 85.539,43.651 C85.149,46.216 84.29,48.866 82.483,49.935 L7.21,93.486 C6.897,93.667 6.595,93.744 6.314,93.744 L6.131,93.733 C6.131,93.734 3.349,93.293 3.128,91.609 C2.568,87.327 1.977,82.828 1.963,70.258 C1.948,57.474 2.86,50.513 2.86,50.513 C3.57,46.367 5.647,45.321 5.647,45.321 C5.647,45.321 8.148,43.887 12.238,41.542 L12.245,41.414 L12.245,41.371 C12.245,41.254 12.245,40.925 12.243,40.793 C12.24,40.686 12.302,40.583 12.434,40.508 L18.446,37.036 C18.574,36.962 18.746,36.926 18.927,36.926 C19.145,36.926 19.376,36.979 19.554,37.082 C19.747,37.194 19.839,37.34 19.822,37.474 L20.033,37.072 C41.806,24.585 80.636,2.318 80.777,2.236 C80.894,2.168 81.583,1.729 82.311,1.701 M82.311,0.704 L82.272,0.705 C81.654,0.728 80.989,0.949 80.298,1.361 L80.277,1.373 C80.129,1.458 59.768,13.135 19.758,36.079 C19.5,35.981 19.214,35.929 18.927,35.929 C18.562,35.929 18.223,36.013 17.947,36.173 L11.935,39.644 C11.493,39.899 11.236,40.334 11.246,40.81 L11.247,40.96 L5.167,44.447 C4.794,44.646 2.625,45.978 1.877,50.345 L1.871,50.384 C1.862,50.454 0.951,57.557 0.965,70.259 C0.979,82.879 1.568,87.375 2.137,91.724 L2.139,91.739 C2.447,94.094 5.614,94.662 5.975,94.719 L6.009,94.723 C6.11,94.736 6.213,94.742 6.314,94.742 C6.79,94.742 7.26,94.61 7.71,94.35 L82.983,50.798 C84.794,49.727 85.982,47.375 86.525,43.801 C87.711,35.987 88.259,10.705 86.224,3.502 C85.971,2.609 85.52,1.975 84.881,1.62 L84.749,1.558 L82.664,0.769 C82.551,0.725 82.431,0.704 82.311,0.704" id="Fill-2" fill="#455A64"></path>
                    <path d="M66.267,11.565 L67.762,11.999 L11.423,44.325" id="Fill-3" fill="#FFFFFF"></path>
                    <path d="M12.202,90.545 C12.029,90.545 11.862,90.455 11.769,90.295 C11.632,90.057 11.713,89.752 11.952,89.614 L30.389,78.969 C30.628,78.831 30.933,78.913 31.071,79.152 C31.208,79.39 31.127,79.696 30.888,79.833 L12.451,90.478 L12.202,90.545" id="Fill-4" fill="#607D8B"></path>
                    <path d="M13.764,42.654 L13.656,42.592 L13.702,42.421 L18.837,39.457 L19.007,39.502 L18.962,39.673 L13.827,42.637 L13.764,42.654" id="Fill-5" fill="#607D8B"></path>
                    <path d="M8.52,90.375 L8.52,46.421 L8.583,46.385 L75.84,7.554 L75.84,51.508 L75.778,51.544 L8.52,90.375 L8.52,90.375 Z M8.77,46.564 L8.77,89.944 L75.591,51.365 L75.591,7.985 L8.77,46.564 L8.77,46.564 Z" id="Fill-6" fill="#607D8B"></path>
                    <path d="M24.986,83.182 C24.756,83.331 24.374,83.566 24.137,83.705 L12.632,90.406 C12.395,90.545 12.426,90.658 12.7,90.658 L13.265,90.658 C13.54,90.658 13.958,90.545 14.195,90.406 L25.7,83.705 C25.937,83.566 26.128,83.452 26.125,83.449 C26.122,83.447 26.119,83.22 26.119,82.946 C26.119,82.672 25.931,82.569 25.701,82.719 L24.986,83.182" id="Fill-7" fill="#607D8B"></path>
                    <path d="M13.266,90.782 L12.7,90.782 C12.5,90.782 12.384,90.726 12.354,90.616 C12.324,90.506 12.397,90.399 12.569,90.299 L24.074,83.597 C24.31,83.459 24.689,83.226 24.918,83.078 L25.633,82.614 C25.723,82.555 25.813,82.525 25.899,82.525 C26.071,82.525 26.244,82.655 26.244,82.946 C26.244,83.16 26.245,83.309 26.247,83.383 L26.253,83.387 L26.249,83.456 C26.246,83.531 26.246,83.531 25.763,83.812 L14.258,90.514 C14,90.665 13.564,90.782 13.266,90.782 L13.266,90.782 Z M12.666,90.532 L12.7,90.533 L13.266,90.533 C13.518,90.533 13.915,90.425 14.132,90.299 L25.637,83.597 C25.805,83.499 25.931,83.424 25.998,83.383 C25.994,83.299 25.994,83.165 25.994,82.946 L25.899,82.775 L25.768,82.824 L25.054,83.287 C24.822,83.437 24.438,83.673 24.2,83.812 L12.695,90.514 L12.666,90.532 L12.666,90.532 Z" id="Fill-8" fill="#607D8B"></path>
                    <path d="M13.266,89.871 L12.7,89.871 C12.5,89.871 12.384,89.815 12.354,89.705 C12.324,89.595 12.397,89.488 12.569,89.388 L24.074,82.686 C24.332,82.535 24.768,82.418 25.067,82.418 L25.632,82.418 C25.832,82.418 25.948,82.474 25.978,82.584 C26.008,82.694 25.935,82.801 25.763,82.901 L14.258,89.603 C14,89.754 13.564,89.871 13.266,89.871 L13.266,89.871 Z M12.666,89.621 L12.7,89.622 L13.266,89.622 C13.518,89.622 13.915,89.515 14.132,89.388 L25.637,82.686 L25.667,82.668 L25.632,82.667 L25.067,82.667 C24.815,82.667 24.418,82.775 24.2,82.901 L12.695,89.603 L12.666,89.621 L12.666,89.621 Z" id="Fill-9" fill="#607D8B"></path>
                    <path d="M12.37,90.801 L12.37,89.554 L12.37,90.801" id="Fill-10" fill="#607D8B"></path>
                    <path d="M6.13,93.901 C5.379,93.808 4.816,93.164 4.691,92.525 C3.86,88.287 3.54,83.743 3.526,71.173 C3.511,58.389 4.423,51.428 4.423,51.428 C5.134,47.282 7.21,46.236 7.21,46.236 C7.21,46.236 81.667,3.25 82.069,3.017 C82.292,2.888 84.556,1.433 85.264,3.94 C87.214,10.84 86.752,35.827 85.539,43.818 C85.15,46.383 84.291,49.033 82.483,50.101 L7.21,93.653 C6.828,93.874 6.461,93.941 6.13,93.901 C6.13,93.901 3.349,93.46 3.129,91.776 C2.568,87.495 1.977,82.995 1.962,70.425 C1.948,57.641 2.86,50.68 2.86,50.68 C3.57,46.534 5.647,45.489 5.647,45.489 C5.646,45.489 8.065,44.092 12.245,41.679 L13.116,41.56 L19.715,37.73 L19.761,37.269 L6.13,93.901" id="Fill-11" fill="#FAFAFA"></path>
                    <path d="M6.317,94.161 L6.102,94.148 L6.101,94.148 L5.857,94.101 C5.138,93.945 3.085,93.365 2.881,91.809 C2.313,87.469 1.727,82.996 1.713,70.425 C1.699,57.771 2.604,50.718 2.613,50.648 C3.338,46.417 5.445,45.31 5.535,45.266 L12.163,41.439 L13.033,41.32 L19.479,37.578 L19.513,37.244 C19.526,37.107 19.647,37.008 19.786,37.021 C19.922,37.034 20.023,37.156 20.009,37.293 L19.95,37.882 L13.198,41.801 L12.328,41.919 L5.772,45.704 C5.741,45.72 3.782,46.772 3.106,50.722 C3.099,50.782 2.198,57.808 2.212,70.424 C2.226,82.963 2.809,87.42 3.373,91.729 C3.464,92.42 4.062,92.883 4.682,93.181 C4.566,92.984 4.486,92.776 4.446,92.572 C3.665,88.588 3.291,84.37 3.276,71.173 C3.262,58.52 4.167,51.466 4.176,51.396 C4.901,47.165 7.008,46.059 7.098,46.014 C7.094,46.015 81.542,3.034 81.944,2.802 L81.972,2.785 C82.876,2.247 83.692,2.097 84.332,2.352 C84.887,2.573 85.281,3.085 85.504,3.872 C87.518,11 86.964,36.091 85.785,43.855 C85.278,47.196 84.21,49.37 82.61,50.317 L7.335,93.869 C6.999,94.063 6.658,94.161 6.317,94.161 L6.317,94.161 Z M6.17,93.654 C6.463,93.69 6.774,93.617 7.085,93.437 L82.358,49.886 C84.181,48.808 84.96,45.971 85.292,43.78 C86.466,36.049 87.023,11.085 85.024,4.008 C84.846,3.377 84.551,2.976 84.148,2.816 C83.664,2.623 82.982,2.764 82.227,3.213 L82.193,3.234 C81.791,3.466 7.335,46.452 7.335,46.452 C7.304,46.469 5.346,47.521 4.669,51.471 C4.662,51.53 3.761,58.556 3.775,71.173 C3.79,84.328 4.161,88.524 4.936,92.476 C5.026,92.937 5.412,93.459 5.973,93.615 C6.087,93.64 6.158,93.652 6.169,93.654 L6.17,93.654 L6.17,93.654 Z" id="Fill-12" fill="#455A64"></path>
                    <path d="M7.317,68.982 C7.806,68.701 8.202,68.926 8.202,69.487 C8.202,70.047 7.806,70.73 7.317,71.012 C6.829,71.294 6.433,71.069 6.433,70.508 C6.433,69.948 6.829,69.265 7.317,68.982" id="Fill-13" fill="#FFFFFF"></path>
                    <path d="M6.92,71.133 C6.631,71.133 6.433,70.905 6.433,70.508 C6.433,69.948 6.829,69.265 7.317,68.982 C7.46,68.9 7.595,68.861 7.714,68.861 C8.003,68.861 8.202,69.09 8.202,69.487 C8.202,70.047 7.806,70.73 7.317,71.012 C7.174,71.094 7.039,71.133 6.92,71.133 M7.714,68.674 C7.557,68.674 7.392,68.723 7.224,68.821 C6.676,69.138 6.246,69.879 6.246,70.508 C6.246,70.994 6.517,71.32 6.92,71.32 C7.078,71.32 7.243,71.271 7.411,71.174 C7.959,70.857 8.389,70.117 8.389,69.487 C8.389,69.001 8.117,68.674 7.714,68.674" id="Fill-14" fill="#8097A2"></path>
                    <path d="M6.92,70.947 C6.649,70.947 6.621,70.64 6.621,70.508 C6.621,70.017 6.982,69.392 7.411,69.145 C7.521,69.082 7.625,69.049 7.714,69.049 C7.986,69.049 8.015,69.355 8.015,69.487 C8.015,69.978 7.652,70.603 7.224,70.851 C7.115,70.914 7.01,70.947 6.92,70.947 M7.714,68.861 C7.595,68.861 7.46,68.9 7.317,68.982 C6.829,69.265 6.433,69.948 6.433,70.508 C6.433,70.905 6.631,71.133 6.92,71.133 C7.039,71.133 7.174,71.094 7.317,71.012 C7.806,70.73 8.202,70.047 8.202,69.487 C8.202,69.09 8.003,68.861 7.714,68.861" id="Fill-15" fill="#8097A2"></path>
                    <path d="M7.444,85.35 C7.708,85.198 7.921,85.319 7.921,85.622 C7.921,85.925 7.708,86.292 7.444,86.444 C7.181,86.597 6.967,86.475 6.967,86.173 C6.967,85.871 7.181,85.502 7.444,85.35" id="Fill-16" fill="#FFFFFF"></path>
                    <path d="M7.23,86.51 C7.074,86.51 6.967,86.387 6.967,86.173 C6.967,85.871 7.181,85.502 7.444,85.35 C7.521,85.305 7.594,85.284 7.658,85.284 C7.814,85.284 7.921,85.408 7.921,85.622 C7.921,85.925 7.708,86.292 7.444,86.444 C7.367,86.489 7.294,86.51 7.23,86.51 M7.658,85.098 C7.558,85.098 7.455,85.127 7.351,85.188 C7.031,85.373 6.781,85.806 6.781,86.173 C6.781,86.482 6.966,86.697 7.23,86.697 C7.33,86.697 7.433,86.666 7.538,86.607 C7.858,86.422 8.108,85.989 8.108,85.622 C8.108,85.313 7.923,85.098 7.658,85.098" id="Fill-17" fill="#8097A2"></path>
                    <path d="M7.23,86.322 L7.154,86.173 C7.154,85.938 7.333,85.629 7.538,85.512 L7.658,85.471 L7.734,85.622 C7.734,85.856 7.555,86.164 7.351,86.282 L7.23,86.322 M7.658,85.284 C7.594,85.284 7.521,85.305 7.444,85.35 C7.181,85.502 6.967,85.871 6.967,86.173 C6.967,86.387 7.074,86.51 7.23,86.51 C7.294,86.51 7.367,86.489 7.444,86.444 C7.708,86.292 7.921,85.925 7.921,85.622 C7.921,85.408 7.814,85.284 7.658,85.284" id="Fill-18" fill="#8097A2"></path>
                    <path d="M77.278,7.769 L77.278,51.436 L10.208,90.16 L10.208,46.493 L77.278,7.769" id="Fill-19" fill="#455A64"></path>
                    <path d="M10.083,90.375 L10.083,46.421 L10.146,46.385 L77.403,7.554 L77.403,51.508 L77.341,51.544 L10.083,90.375 L10.083,90.375 Z M10.333,46.564 L10.333,89.944 L77.154,51.365 L77.154,7.985 L10.333,46.564 L10.333,46.564 Z" id="Fill-20" fill="#607D8B"></path>
                </g>
                <path d="M125.737,88.647 L118.098,91.981 L118.098,84 L106.639,88.713 L106.639,96.982 L99,100.315 L112.369,103.961 L125.737,88.647" id="Imported-Layers-Copy-2" fill="#455A64" sketch:type="MSShapeGroup"></path>
            </g>
        </g>
    </g>
</svg>