<?xml version="1.0" encoding="utf-8"?>
<!-- Generator: Adobe Illustrator 18.1.1, SVG Export Plug-In . SVG Version: 6.00 Build 0)  -->
<!DOCTYPE svg PUBLIC "-//W3C//DTD SVG 1.1//EN" "http://www.w3.org/Graphics/SVG/1.1/DTD/svg11.dtd">
<svg version="1.1" id="Layer_1" xmlns="http://www.w3.org/2000/svg" xmlns:xlink="http://www.w3.org/1999/xlink" x="0px" y="0px"
	 viewBox="0 0 192 192" enable-background="new 0 0 192 192" xml:space="preserve">
<g>
	<path fill="gray" stroke="black" stroke-width="3" d="M143.9,96.4c0-7.6-6.2-13.9-13.9-13.9c-7.5,0-13.5,5.9-13.8,13.3l14.4,14.4C138,109.9,143.9,103.9,143.9,96.4z"/>
	<path fill="gray" stroke="black" stroke-width="3" d="M105.8,77c6.2-5.7,14.1-10.6,23.6-10.6c23.2,0,37.7,29.3,37.7,29.3s-9.2,18.7-24.8,26.2l10.9,10.9
		c20.5-12.4,32.5-36.9,32.5-36.9s-21.6-43.8-56.1-43.9c0,0-38.3,0-57.2,0.1l29.1,29.1C102.9,79.9,104.3,78.4,105.8,77z"/>
	<path fill="gray" stroke="black" stroke-width="3" d="M162.9,162.9l-24-24c0,0,0,0,0,0l-14.2-14.2c0,0,0,0,0,0L66.9,66.9c0,0,0,0,0,0L53.3,53.2c0,0,0,0,0,0L23.1,23.1L13,33.3
		l25.9,25.9C18.3,71.5,6.2,96,6.2,96s21.6,43.8,56.1,43.8c13.3,0,24.7-6.5,33.6-14.5c6.2,5.5,13.5,10.3,21.8,12.7l34.9,34.9
		L162.9,162.9z M85.7,114.5c-6.2,5.7-14.1,10.6-23.5,10.6c-23.2,0-37.7-29.3-37.7-29.3s9.3-18.7,24.8-26.2l13,13
		c-7.6,0.1-13.7,6.2-13.7,13.8c0,7.7,6.2,13.9,13.9,13.9c7.6,0,13.8-6.1,13.8-13.7l13.6,13.6C88.6,111.7,87.2,113.1,85.7,114.5z"/>
	<path fill="none" d="M0,0h192v192H0V0z"/>
</g>
</svg>
