<svg xmlns="http://www.w3.org/2000/svg" width="24px" height="24px" viewBox="0 0 24 24" fill="#FFFFFF">
    <path d="M20.74 6H3.21C2.55 6 2 6.57 2 7.28v10.44c0 .7.55 1.28 1.23 1.28h4.79c.52 0 .96-.33 1.14-.79l1.4-3.48c.23-.59.79-1.01 1.44-1.01s1.21.42 1.45 1.01l1.39 3.48c.19.46.63.79 1.11.79h4.79c.71 0 1.26-.57 1.26-1.28V7.28c0-.7-.55-1.28-1.26-1.28zM7.5 14.62c-1.17 0-2.13-.95-2.13-2.12 0-1.17.96-2.13 2.13-2.13 1.18 0 2.12.96 2.12 2.13s-.95 2.12-2.12 2.12zm9 0c-1.17 0-2.13-.95-2.13-2.12 0-1.17.96-2.13 2.13-2.13s2.12.96 2.12 2.13-.95 2.12-2.12 2.12z"/>
    <path fill="none" d="M0 0h24v24H0V0z"/>
</svg>
