<?xml version="1.0" encoding="utf-8"?>
<!-- Generator: Adobe Illustrator 18.1.1, SVG Export Plug-In . SVG Version: 6.00 Build 0)  -->
<!DOCTYPE svg PUBLIC "-//W3C//DTD SVG 1.1//EN" "http://www.w3.org/Graphics/SVG/1.1/DTD/svg11.dtd">
<svg version="1.1" id="Layer_1" xmlns="http://www.w3.org/2000/svg" xmlns:xlink="http://www.w3.org/1999/xlink" x="0px" y="0px"
	 viewBox="0 0 192 192" enable-background="new 0 0 192 192" xml:space="preserve">
<g>
	<g>
		<path fill="gray" stroke="black" stroke-width="1" id="_x3C_Path_x3E__9_" d="M171.2,144.2c0-5.6-3.6-7.2-8.8-7.2H155v26h6v-11h-0.4l6.4,11h6.2l-7.4-11.3
			C169.3,151.1,171.2,147.6,171.2,144.2z M161.2,149H161v-9h0.3c2.7,0,4.8,1.2,4.8,4.4C166,147.6,164.1,149,161.2,149z"/>
		<polygon fill="gray" stroke="black" stroke-width="1" points="132.3,153 132.2,153 125.9,137 120.4,137 130.4,163 133.4,163 143.6,137 138.1,137 		"/>
		<path fill="gray" stroke="black" stroke-width="1" id="_x3C_Path_x3E__8_" d="M105,147.9c1.6-1,2.3-2.5,2.3-4.4c0-5.2-3-6.5-7.9-6.5H93v26h8.1c4.8,0,8.4-2.9,8.4-8
			C109.5,152.1,108.1,148.4,105,147.9z M98,140h0.8c2.2,0,3.7,0.8,3.7,3.5c0,2.7-1.2,3.5-3.7,3.5H98V140z M99.3,158H98v-7h1
			c2.6,0,5.4,0,5.4,3.4S102,158,99.3,158z"/>
		<polygon fill="gray" stroke="black" stroke-width="1" points="65,163 79,163 79,158 71,158 71,151 79,151 79,147 71,147 71,140 79,140 79,137 65,137 		"/>
		<polygon fill="gray" stroke="black" stroke-width="1" points="43.3,154 43.2,154 37.8,137 34.7,137 29.5,154 29.4,154 24.1,137 18.8,137 27.1,163 30.9,163 35.8,146 35.9,146 
			41.1,163 44.9,163 53.8,137 48.4,137 "/>
	</g>
	<circle fill="gray" stroke="black" stroke-width="3" cx="62.4" cy="73.5" r="13.9"/>
	<circle fill="gray" stroke="black" stroke-width="3" cx="130" cy="73.5" r="13.9"/>
	<path fill="gray" stroke="black" stroke-width="3" id="_x3C_Path_x3E__5_" d="M129.6,117c34.5,0,56.1-43.9,56.1-43.9s-21.6-43.8-56.1-43.9c0,0-67.2,0.1-67.3,0.1
		c-34.5,0-56.1,43.8-56.1,43.8S27.8,117,62.4,117c13.3,0,24.7-6.5,33.6-14.5C105,110.5,116.3,117,129.6,117z M85.7,91.7
		c-6.2,5.7-14.1,10.6-23.5,10.6c-23.2,0-37.7-29.3-37.7-29.3s14.5-29.3,37.7-29.3c9.6,0,17.6,5,23.8,10.8c4.1,3.9,7.4,8.2,9.8,11.7
		c2.4-3.5,5.8-8,10.1-11.9c6.2-5.7,14.1-10.6,23.6-10.6c23.2,0,37.7,29.3,37.7,29.3s-14.5,29.3-37.7,29.3c-9.3,0-17.1-4.7-23.3-10.3
		c-4.4-4.1-7.9-8.6-10.4-12.2C93.4,83.2,90,87.7,85.7,91.7z"/>
	<path fill="none" d="M0,0h192v192H0V0z"/>
</g>
</svg>
